<?xml version="1.0" encoding="utf-8"?>
<!DOCTYPE svg PUBLIC "-//W3C//DTD SVG 1.1//EN" "http://www.w3.org/Graphics/SVG/1.1/DTD/svg11.dtd">
<svg version="1.1" id="Layer_0_xA0_Image_1_" xmlns="http://www.w3.org/2000/svg" xmlns:xlink="http://www.w3.org/1999/xlink"
	 x="0px" y="0px" width="800px" height="800px" viewBox="0 0 800 800" style="enable-background:new 0 0 800 800;"
	 xml:space="preserve">
<style type="text/css">
<![CDATA[
	.st0{fill:#7EC35A;}
	.st1{fill:#1265AA;}
	.st2{fill:#282324;}
	.st3{fill:#C02A2F;}
	.st4{fill:#FCFDFD;}
	.st5{fill:none;}
	.st6{fill:none;stroke:#282324;stroke-width:10;stroke-miterlimit:10;}
]]>
</style>
<circle class="st4" cx="399.8" cy="400" r="392.5"/>
<g>
	<polygon class="st5" points="534.1,246.1 534,246.1 535.4,248 535.4,247.9 	"/>
	<path class="st1" d="M561.3,285.4c0.9,1.3,0.3,0.4,0.7,1C561.8,286,561.6,285.8,561.3,285.4z"/>
	<polygon class="st1" points="543.5,260.7 543.5,260.7 543.5,260.7 	"/>
	<polygon class="st1" points="541.7,258.4 541.7,258.4 541.7,258.4 	"/>
	<path class="st3" d="M648.8,406.7C648.8,406.7,648.8,406.8,648.8,406.7C648.8,406.8,648.8,406.7,648.8,406.7z"/>
	<path class="st3" d="M649.6,407.9l0.2,0.3C649.7,408.1,649.6,408,649.6,407.9C649.6,407.9,649.6,407.9,649.6,407.9z"/>
	<path class="st4" d="M667.6,433.2c-5-6.9-10-13.7-15-20.6c-1.3,4.5-3.2,8.7-6.3,12.3c-5.5,6.3-10.8,7.2-18.3,3.3
		c-6.6-3.5-11.9-8.5-17.4-13.4c-7.5-6.8-14.4-14.4-22.7-20.3c-1.6-1.1-3.2-2-5.2-1.3c-1,0.3-1,0.4-1.7,1.1c-0.5,0.5-0.6,0.9-0.7,1.5
		c-0.2,1-0.1,0.7-0.2,1.4c-0.1,2.1-0.3,4.1-0.3,6.2c0.1,6.2,0.2,12.4,0.3,18.6c0.1,3.5-0.4,6.9-1.6,10.2c-4.4,12.5-13.5,14.5-22.7,5
		c-8.2-8.5-12.7-19.2-18.1-29.4c-8.8-16.6-15.1-34.4-21.7-52c-1-2.6-1.9-5.2-3.2-7.6c-5.3-10.1-14.1-11.9-23.1-4.8
		c-6.9,5.5-9.8,13.3-11.1,21.6c-2.5,15.4-0.7,30.6,3.2,45.5c1.9,7.4,2.9,14.9,0.9,22.4c-2.1,7.7-7.4,12.3-15.1,14
		c-7.7,1.7-14.3-0.1-19.3-6.6c-5.9-7.7-9-16.7-12.1-25.6c-6.1-17.6-11.5-35.4-19.8-52.1c-2.9-5.7-6.2-11.1-11.1-15.5
		c-5.2-4.6-9.3-4.7-14.7-0.3c-5.5,4.5-8.5,10.7-11.6,16.9c-1.6,3.2-3.1,6.5-4.9,9.7c-1.6,3-4,5.2-7.7,5.2c-3.8,0-5.9-2.5-7.5-5.5
		c-3.3-6.6-4.1-13.8-4.6-21.1c-0.3-5.6-1.3-6.3-6.1-3.5c-10.8,6.4-19.4,15.3-28.5,23.8c-10,9.3-18.2,20.2-28.8,28.9
		c-4,3.3-8.3,7.4-13.8,4.7c-5.2-2.6-4.7-8.5-4.6-13.4c0.4-11.8,3.9-23,7.5-34.2c1-3,3.4-7,0.6-9.1c-2.8-2.1-6,1.3-8.6,3.1
		c-8.4,5.5-15.6,12.4-22.6,19.6c-7.3,7.5-14.6,13.3-24.7,16.4c-2.8,4.3-6.3,8.5-9.5,12.3l-3.4,30l22.7,19.8l-29.6,6l-11.8,27.8
		l-14.8-26.3l-0.2,0c-5.3,8-16.2,24.4-28.7,43.1c39.9,99,137,169,250.3,169C537.6,669.8,651.2,566.6,667.6,433.2z M513.8,447.1
		l1.1-9.7l7,6.8l9.6-1.9l-4.3,8.8l4.8,8.5l-9.7-1.4l-6.6,7.2l-1.7-9.6l-8.9-4.1L513.8,447.1z M396.5,443.2l5.8-15l8.4,13.7l16,0.9
		L416.2,455l4.1,15.5l-14.8-6.1l-13.5,8.7l1.3-16l-12.4-10.1L396.5,443.2z M301.1,431l15.1-18.1l5.2,23.1l21.9,8.8L323,456.7
		l-1.6,23.6l-17.8-15.6l-22.9,5.8l9.3-21.7l-12.6-20L301.1,431z"/>
	<path class="st0" d="M215.3,400.6L215.3,400.6C217.4,398,216,399.7,215.3,400.6z"/>
	<path class="st2" d="M543.5,260.7C543.5,260.7,543.5,260.7,543.5,260.7C543.5,260.7,543.5,260.8,543.5,260.7
		C543.5,260.8,543.5,260.7,543.5,260.7z"/>
	<polygon class="st2" points="543.5,260.7 543.5,260.7 543.5,260.8 543.5,260.7 	"/>
	<path class="st2" d="M542.6,259.6C542.6,259.6,542.6,259.6,542.6,259.6C542.6,259.6,542.6,259.6,542.6,259.6
		C542.6,259.6,542.6,259.6,542.6,259.6z"/>
	<path class="st2" d="M546.5,264.9C546.5,264.9,546.5,264.9,546.5,264.9L546.5,264.9C546.5,265,546.5,265,546.5,264.9z"/>
	<path class="st2" d="M545.6,263.8C545.6,263.8,545.6,263.8,545.6,263.8C545.6,263.8,545.6,263.8,545.6,263.8
		C545.6,263.8,545.6,263.8,545.6,263.8z"/>
	<path class="st2" d="M541.7,258.5C541.7,258.5,541.7,258.4,541.7,258.5C541.7,258.5,541.7,258.5,541.7,258.5
		C541.7,258.5,541.7,258.5,541.7,258.5z"/>
	<polygon class="st2" points="541.7,258.4 541.7,258.4 541.7,258.5 541.7,258.4 	"/>
	<path class="st2" d="M539.5,255.5C539.5,255.5,539.5,255.5,539.5,255.5C539.4,255.5,539.5,255.5,539.5,255.5
		C539.5,255.5,539.5,255.5,539.5,255.5z"/>
	<path class="st2" d="M553,274C553,274,553,274,553,274C553,274.1,553,274.1,553,274C553,274.1,553,274.1,553,274z"/>
	<path class="st2" d="M555.1,277.1C555.1,277.1,555.1,277.1,555.1,277.1C555.1,277.1,555.1,277.1,555.1,277.1
		C555.1,277.1,555.1,277.1,555.1,277.1z"/>
	<path class="st2" d="M553.9,275.1C553.9,275.1,553.9,275.1,553.9,275.1L553.9,275.1C553.9,275.2,553.9,275.2,553.9,275.1z"/>
	<path class="st2" d="M547.8,266.8C547.8,266.8,547.8,266.8,547.8,266.8C547.8,266.8,547.8,266.9,547.8,266.8
		C547.8,266.9,547.8,266.8,547.8,266.8z"/>
	<path class="st2" d="M550.8,271C550.8,271,550.8,271,550.8,271C550.8,271,550.8,271,550.8,271C550.8,271,550.8,271,550.8,271z"/>
	<path class="st2" d="M548.8,267.9C548.7,267.9,548.7,267.9,548.8,267.9L548.8,267.9C548.8,267.9,548.8,267.9,548.8,267.9z"/>
	<path class="st2" d="M551.8,272.1C551.7,272.1,551.7,272.1,551.8,272.1L551.8,272.1C551.8,272.2,551.8,272.2,551.8,272.1z"/>
	<path class="st4" d="M538.2,253.5C538.2,253.5,538.2,253.5,538.2,253.5C538.2,253.6,538.2,253.6,538.2,253.5
		C538.2,253.6,538.2,253.5,538.2,253.5z"/>
	<path class="st4" d="M530.2,382.8C530.1,382.6,530.2,382.8,530.2,382.8L530.2,382.8z"/>
	<polygon class="st4" points="257,344.5 257,344.5 257,344.5 	"/>
	<path class="st4" d="M649.6,407.8c-0.5-0.6,0,0-0.8-1c0,0,0,0,0-0.1c0,0,0,0,0-0.1c-10.2-14.3-21.2-29.8-31.5-44.1
		c-18.2-25.3-36.5-50.5-54.8-75.7c-0.2-0.2-0.3-0.4-0.4-0.5c-0.4-0.6,0.2,0.3-0.7-1l-2-2.5c-1.1-1.6,0,0-1.1-1.6c-1.6-2,0,0-1.6-2
		c-0.4-0.5,0,0-0.4-0.5c-1.1-1.5,0,0-1.1-1.5c0,0,0,0,0,0c-1.2-1.9,0,0-1.2-2c-0.9-1.1,0,0-0.9-1.1c0,0,0,0,0,0
		c-1.3-1.9,0,0-1.3-1.9c-0.9-1.1,0,0-0.8-1.1c0,0,0,0,0,0c-2.1-3.1,0,0-2.1-3.1c-0.9-1,0,0-0.9-1c0,0,0,0,0,0c-1.3-1.9,0,0-1.3-1.9
		c-0.8-1.1,0,0-0.8-1.1c0,0,0,0,0,0l0,0c-2.2-3.1,0,0-2.2-3.1c0,0,0,0,0,0l0,0l0,0c0,0,0.1,0.1,0.1,0.1c0,0,0,0,0,0
		c-0.9-1.1,0,0-0.9-1.1c0,0,0,0,0,0l0,0c-0.9-1.2,0,0-0.9-1.2c0,0,0,0,0,0l0,0l0,0c0,0,0,0,0,0c0,0,0,0,0,0c-2.2-2.9,0,0-2.2-3l0,0
		c0,0,0,0,0,0c-1.2-1.9,0,0-1.2-1.9c-1.8-2.2,0-0.1-1.8-2.2c0,0,0,0,0,0l0,0c-3.1-4.1,0,0-3.1-4.1c0,0,0,0,0,0c-2.6-2.9-4-4.8-7.3-4
		c-6.8,1.5-10-2.8-13.3-7.4c-9.6-13.3-17.3-27.8-25.8-41.8c-6.3-10.4-6.3-10.4-16-3.1c-6.2,4.7-8.5,4.6-14.2-0.8
		c-1.7-1.7-3.4-3.4-4.8-5.4c-4.7-6.5-9.2-13.2-14-19.8c-2.9-4-5.3-4.2-9-1.1c-3.2,2.7-5.9,6-7.7,9.6c-9.4,18.6-20.3,36.3-31.6,53.8
		c-11.1,17.2-22.1,34.5-33.2,51.8c-5.6,8.8-11.6,9.3-18.6,1.7c-2.1-2.3-4.5-4.4-6.2-6.9c-3-4.3-5.4-3.8-8.2,0.1
		c-1.8,2.6-4.2,4.2-7.5,2.5c-7.1-3.6-8.1-3.4-12.8,3.1c-5.7,7.9-11.4,16-17.1,24c-9.2,12.9-18.4,25.8-27.6,38.7
		c-0.5,0.7-1,1.3-1.4,2c-0.9,1.4-1.7,3-2.6,4.3c-6.8,9.8-13.7,19.6-20.5,29.4c-1.1,1.5-4.7,5.7,0.1,2.2c8.9-5.7,16.3-15.3,24.4-21.9
		c6-4.9,11.7-10.3,19.1-13.1c5.2-2,8.1,0.1,7.8,5.7c-0.1,1.9-0.6,3.7-1.1,5.6c-1.9,6.6-4.2,13.1-5.7,19.8c-1.6,7.3-3.8,14.7-2,22.4
		c0.5,1.9,1,4.1,3.2,4.2c4.2,0.3,6.9-2.7,9.7-5.2l5.2-4.8c9-9,17.9-18.2,26.9-27.2c7.8-7.7,15.6-15.4,25.4-20.7
		c6.9-3.8,10.5-1.9,11,5.8c0.4,5.5,0.6,11,2.5,16.3c1.2,3.2,2,7.5,5.8,7.8c4,0.4,5.2-3.9,6.7-6.9c4.2-7.9,7.4-16.3,13.9-22.8
		c4.5-4.6,9.7-6.2,16-4.6c1.4,0.4,0.8,0.2,1.7,0.6c0.7,0.4,0.6,0.4,1.2,1c2.9,2.8,4.9,5.2,7.8,8.1c0.3,0.3,0.3,0.3,0.4,0.3
		c0,0,0,0.1,0.2,0.3c0.5,0.7,0.6,0.9,1.1,1.8c0.2,0.4,0.2,0.4,0.3,0.7c0.5,0.9-0.1-0.1,0.3,0.6c1,1.9,0.1,0.5,1.2,2.2
		c4.4,6.9,6.7,12.9,9.5,20.5c5.3,14.3,9.8,27.4,15,41.8c1.8,5.1,0.3,0.8,1.3,3.5c0.7,2.1-0.1-0.5,0.8,2.3c0.8,2.4,1.6,3.4,2.4,5.2
		c0.9,2.1,2,4,3.2,5.9c4.5,7.2,10.7,9.9,17.8,8c8.1-2.1,13-8,13.4-16.3c0.3-5.2-0.3-10.2-1.7-15.3c-3.5-13.1-5.5-26.4-4.4-40
		c0.8-10.2,2.9-20.2,9.9-28.3c6-6.9,18.6-12.8,27.2-3.6c0.5,0.5,0.7,0.6,1.6,1.7c1.2,1.9,0.4,0.6,0.9,1.4
		c6.5,11.5,9.4,24.4,14.7,36.4c1,2.3,0.5,0.9,1.4,3c0.2,0.4,0.2,0.5,0.2,0.4c0.1,0.2,0.2,0.6,0.6,1.5c1.6,4,3.4,7.9,5.3,11.8
		c0.8,1.8,0,0,0.4,0.7c0.5,1,0.8,1.9,1.3,3c0.9,2.1,0.9,2.1,1.2,2.7c4.2,9.1,8.8,18,14.5,26.2c2.4,3.4,5.1,6.5,8.4,9
		c3.5,2.7,6.6,2.2,9.6-0.8c3.6-3.5,4.6-8,5-12.7c0.7-7.6-0.5-15.1-0.4-22.7c0-4.3-0.4-9.6,4.4-11.9c5-2.5,8.9,1.1,12.4,4.2
		c8,7.1,15.8,14.4,23.7,21.6c1.1,1,1.1,1,2.5,2.2c1.2,1,0,0,1.2,1c1.8,1.5,1.8,1.5,3.4,2.6c4.8,3.3,9.7,7.8,16.4,4.5
		c0.6-0.3,1-0.9,1.5-1.4C645.9,420.4,648.6,413.8,649.6,407.8C649.6,407.9,649.6,407.9,649.6,407.8
		C649.6,407.9,649.6,407.8,649.6,407.8z"/>
	<polygon class="st2" points="515.7,465.4 522.3,458.2 532,459.5 527.2,451 531.5,442.2 521.9,444.2 514.9,437.3 513.8,447.1 
		505.1,451.6 514,455.7 	"/>
	<polygon class="st2" points="392.1,473 405.5,464.3 420.3,470.4 416.2,455 426.6,442.8 410.6,441.9 402.2,428.2 396.5,443.2 
		380.9,446.9 393.3,457 	"/>
	<polygon class="st2" points="280.8,470.5 303.7,464.7 321.5,480.3 323,456.7 343.4,444.7 321.4,435.9 316.2,412.8 301.1,431 
		277.6,428.8 290.1,448.8 	"/>
	<polygon class="st2" points="178.4,457.8 193.3,484.1 205.1,456.3 234.7,450.3 211.9,430.5 215.4,400.5 	"/>
	<polygon class="st4" points="189.5,416 162.1,403.5 168.8,432.9 148.4,455.1 178.2,457.8 178.4,457.8 215.4,400.5 215.3,400.6 	"/>
	<path class="st2" d="M485.4,144.1c-26.9-9-55.7-13.9-85.6-13.9C250.8,130.2,130,251,130,400c0,35.7,6.9,69.7,19.5,100.9
		c12.5-18.7,23.4-35.1,28.7-43.1l-29.8-2.7l20.4-22.2l-6.7-29.4l27.4,12.5l25.8-15.4c0.7-0.9,2.1-2.5,0.1-0.1
		c3.2-3.8,6.7-8.1,9.5-12.3c10.1-3.1,17.4-9,24.7-16.4c7-7.2,14.2-14.1,22.6-19.6c2.7-1.7,5.8-5.2,8.6-3.1c2.8,2.1,0.4,6.1-0.6,9.1
		c-3.7,11.1-7.1,22.3-7.5,34.2c-0.2,5-0.6,10.8,4.6,13.4c5.5,2.8,9.8-1.3,13.8-4.7c10.5-8.7,18.8-19.7,28.8-28.9
		c9.1-8.5,17.7-17.4,28.5-23.8c4.8-2.8,5.8-2.1,6.1,3.5c0.4,7.3,1.3,14.4,4.6,21.1c1.5,3.1,3.7,5.5,7.5,5.5c3.7,0,6-2.2,7.7-5.2
		c1.7-3.2,3.3-6.5,4.9-9.7c3.1-6.2,6.1-12.4,11.6-16.9c5.4-4.4,9.5-4.3,14.7,0.3c4.9,4.3,8.2,9.7,11.1,15.5
		c8.4,16.7,13.7,34.6,19.8,52.1c3.1,8.9,6.2,17.9,12.1,25.6c5,6.5,11.6,8.3,19.3,6.6c7.7-1.7,13-6.3,15.1-14c2-7.5,1.1-15-0.9-22.4
		c-3.9-15-5.7-30.2-3.2-45.5c1.4-8.3,4.2-16,11.1-21.6c9-7.1,17.7-5.4,23.1,4.8c1.3,2.4,2.2,5,3.2,7.6c6.5,17.6,12.8,35.4,21.7,52
		c5.4,10.2,9.9,20.9,18.1,29.4c9.2,9.5,18.3,7.5,22.7-5c1.2-3.3,1.6-6.7,1.6-10.2c-0.1-6.2-0.2-12.4-0.3-18.6c0-2.1,0.1-4.1,0.3-6.2
		c0-0.7,0-0.4,0.2-1.4c0.1-0.6,0.2-1,0.7-1.5c0.7-0.7,0.7-0.7,1.7-1.1c2.1-0.7,3.7,0.2,5.2,1.3c8.3,6,15.2,13.5,22.7,20.3
		c5.5,4.9,10.8,10,17.4,13.4c7.5,3.9,12.8,3,18.3-3.3c3.1-3.6,5.1-7.7,6.3-12.3c5,6.9,10,13.7,15,20.6c0.5-4.3,1-8.7,1.3-13.1
		c0.5-6.6,0.7-13.3,0.7-20.1c0-92.6-46.7-174.4-117.8-222.9c-5.5-3.7-11.1-7.3-16.9-10.6c-7.5-4.3-15.2-8.3-23-11.9
		c-8.6-3.9-17.3-7.4-26.4-10.4 M534.1,246.1l1.3,1.9l0,0L534.1,246.1C534.1,246.1,534.1,246.1,534.1,246.1z M649.6,407.9
		c-1,5.9-3.7,12.5-7.9,16.6c-0.5,0.5-0.9,1.1-1.5,1.4c-6.8,3.3-11.6-1.2-16.4-4.5c-1.6-1.1-1.6-1.1-3.4-2.6c-1.2-1,0,0-1.2-1
		c-1.3-1.2-1.3-1.2-2.5-2.2c-7.9-7.2-15.7-14.5-23.7-21.6c-3.5-3.1-7.4-6.7-12.4-4.2c-4.8,2.3-4.4,7.6-4.4,11.9
		c-0.1,7.5,1.1,15.1,0.4,22.7c-0.4,4.7-1.4,9.2-5,12.7c-3,3-6.1,3.5-9.6,0.8c-3.3-2.5-6.1-5.6-8.4-9c-5.7-8.2-10.3-17.1-14.5-26.2
		c-0.3-0.6-0.3-0.6-1.2-2.7c-0.5-1.2-0.8-2-1.3-3c-0.4-0.7,0.5,1-0.4-0.7c-1.8-3.9-3.7-7.8-5.3-11.8c-0.4-1-0.5-1.4-0.6-1.5
		c0,0-0.1-0.2,0,0c0,0,0,0-0.2-0.4c-0.9-2.1-0.4-0.7-1.4-3c-5.3-12-8.2-24.9-14.7-36.4c-0.5-0.8,0.3,0.5-0.9-1.4
		c-0.9-1-1-1.2-1.6-1.7c-8.7-9.1-21.3-3.3-27.2,3.6c-7,8.1-9.1,18-9.9,28.3c-1.1,13.6,0.9,26.9,4.4,40c1.4,5.1,1.9,10.1,1.7,15.3
		c-0.4,8.3-5.3,14.2-13.4,16.3c-7.2,1.9-13.3-0.9-17.8-8c-1.2-1.9-2.4-3.8-3.2-5.9c-0.8-1.8-1.6-2.8-2.4-5.2c-0.9-2.8,0-0.2-0.8-2.3
		c-1-2.8,0.5,1.5-1.3-3.5c-5.2-14.4-9.7-27.5-15-41.8c-2.8-7.6-5.2-13.6-9.5-20.5c-1.1-1.7-0.2-0.3-1.2-2.2
		c-0.4-0.7,0.2,0.4-0.3-0.6c-0.1-0.2-0.1-0.2-0.3-0.7c-0.5-0.9-0.6-1-1.1-1.8c-0.2-0.2-0.2-0.3-0.2-0.3c0,0-0.1-0.1-0.4-0.3
		c-3-2.8-4.9-5.2-7.8-8.1c-0.6-0.6-0.5-0.6-1.2-1c-1-0.4-0.3-0.2-1.7-0.6c-6.3-1.6-11.5,0-16,4.6c-6.5,6.5-9.7,14.9-13.9,22.8
		c-1.6,3-2.8,7.2-6.7,6.9c-3.8-0.3-4.6-4.6-5.8-7.8c-2-5.2-2.2-10.8-2.5-16.3c-0.5-7.7-4-9.6-11-5.8c-9.8,5.3-17.6,13-25.4,20.7
		c-9.1,9-17.9,18.1-26.9,27.2l-5.2,4.8c-2.8,2.5-5.5,5.5-9.7,5.2c-2.2-0.1-2.7-2.4-3.2-4.2c-1.9-7.7,0.4-15.1,2-22.4
		c1.5-6.7,3.8-13.2,5.7-19.8c0.5-1.8,1-3.7,1.1-5.6c0.3-5.5-2.6-7.7-7.8-5.7c-7.4,2.8-13.1,8.2-19.1,13.1
		c-8.1,6.7-15.5,16.2-24.4,21.9c-4.8,3.5-1.2-0.7-0.1-2.2c6.9-9.8,13.7-19.6,20.5-29.4c1-1.4,1.8-2.9,2.6-4.3c0,0,0,0,0,0l0,0
		c0,0,0,0,0,0c0.5-0.7,1-1.3,1.4-2c9.2-12.9,18.4-25.8,27.6-38.7c5.7-8,11.3-16,17.1-24c4.7-6.6,5.7-6.7,12.8-3.1
		c3.3,1.7,5.7,0.1,7.5-2.5c2.7-4,5.2-4.4,8.2-0.1c1.8,2.5,4.1,4.6,6.2,6.9c7,7.6,12.9,7.1,18.6-1.7c11.1-17.2,22.1-34.6,33.2-51.8
		c11.3-17.5,22.2-35.2,31.6-53.8c1.8-3.6,4.6-6.9,7.7-9.6c3.7-3.1,6.1-2.9,9,1.1c4.7,6.5,9.2,13.2,14,19.8c1.4,1.9,3.1,3.7,4.8,5.4
		c5.6,5.4,7.9,5.4,14.2,0.8c9.7-7.3,9.7-7.3,16,3.1c8.5,14,16.2,28.5,25.8,41.8c3.3,4.6,6.6,8.9,13.3,7.4c3.3-0.7,4.7,1.1,7.3,4
		c0,0,0,0,0,0c3.1,4.1,0,0,3.1,4.1l0,0c1.8,2.2,0,0,1.8,2.2c0,0,0,0,0,0c0,0,0.1,0.1,0.1,0.1c0,0,0,0,0,0c1.2,1.9,0,0,1.2,1.9
		c0,0,0,0,0,0c0,0,0,0,0,0l0,0c2.2,3,0,0,2.2,3c0,0,0,0,0,0c0,0,0,0,0,0l0,0c0.9,1.1,0,0,0.9,1.2l0,0c0,0,0,0,0,0c0,0,0,0,0,0
		c0.9,1.1,0,0,0.9,1.1c0,0,0,0,0,0c0,0,0,0,0,0l-0.1-0.1c2.2,3.1,0,0,2.2,3.1l0,0c0,0,0,0,0,0c0,0,0,0,0,0c0.8,1.1,0,0,0.8,1.1
		c0,0,0.1,0,0.1,0c0,0,0,0,0,0.1l-0.1-0.1c1.3,1.9,0,0,1.3,1.9c0,0,0,0,0,0c0,0,0,0,0,0c0.9,1,0,0,0.9,1c0,0,0,0,0,0c0,0,0,0,0,0
		l0-0.1c2.1,3.1,0,0,2.1,3.1c0,0,0,0,0,0c0,0,0,0,0,0c0.8,1,0,0,0.8,1.1c0,0,0.1,0,0.1,0c0,0,0,0.1,0,0.1l-0.1-0.1
		c1.3,1.9,0,0,1.3,1.9c0,0,0,0,0,0c0,0,0,0,0,0c0.9,1,0,0,0.9,1.1c0,0,0,0,0,0c0,0,0,0,0,0l0-0.1c1.2,2,0,0,1.2,2c0,0,0,0,0,0
		c0,0,0,0,0,0c1.1,1.5,0,0,1.1,1.5c0.4,0.5,0,0,0.4,0.5c1.6,2,0,0,1.6,2c1.1,1.6,0,0,1.1,1.6l2,2.5c0.3,0.4,0.5,0.7,0.7,1
		c0.1,0.1,0.2,0.3,0.4,0.5c18.3,25.2,36.6,50.4,54.8,75.7c10.3,14.2,21.3,29.8,31.5,44.1c0,0,0,0,0,0.1c0,0,0,0,0,0.1
		C649.5,407.8,649.1,407.2,649.6,407.9C649.6,407.8,649.6,407.9,649.6,407.9c0.1,0.1,0.1,0.2,0.2,0.3L649.6,407.9z"/>
</g>
<circle class="st6" cx="399.8" cy="400" r="269.8"/>
<g>
	<path class="st5" d="M66.8,382.1c0,183.9,149.1,333,333,333c183.9,0,333-149.1,333-333"/>
	<path class="st2" d="M210.2,655.4l-10-6.7l5.6-8.3l29.9,20l-5.6,8.3l-10-6.7l-19.6,29.3l-10-6.7L210.2,655.4z"/>
	<path class="st2" d="M243.8,664.8l26.2,13l-4.5,9l-15.5-7.7l-3.2,6.4l13.2,6.6l-4.5,9l-13.2-6.6l-3.6,7.2l16.1,8l-4.5,9l-26.8-13.3
		L243.8,664.8z"/>
	<path class="st2" d="M271.8,703.6c4.9-14.4,17.6-19.2,28.4-15.5c5.7,1.9,9.4,6.1,11.4,10.2l-8.4,5.2c-1.5-2.6-3.1-4.6-6-5.6
		c-5-1.7-10.9,1.4-13.6,9.2c-2.7,8-0.6,13.8,5,15.7c3.3,1.1,6.5,0.3,9-1l3.5,9.1c-5.1,3-10.7,3.4-16.3,1.5
		C273.8,728.7,266.8,718.2,271.8,703.6z"/>
	<path class="st2" d="M322.6,695.9l12.1,2.2l6.2,21.7l2.4,10.8l0.3,0.1c0.3-4.9,0.6-11.8,1.6-17.3l2.4-12.9l11.2,2.1l-8.3,44.5
		l-12.1-2.2l-6.2-21.8l-2.4-10.7l-0.3-0.1c-0.4,5.2-0.6,11.8-1.6,17.3l-2.4,12.9l-11.2-2.1L322.6,695.9z"/>
	<path class="st2" d="M369.1,726.3c0.4-14.9,9.1-23,21.7-22.7c12.5,0.3,20.8,9,20.4,23.8c-0.4,14.9-9.1,23.4-21.7,23.1
		C376.9,750.3,368.7,741.2,369.1,726.3z M398.9,727.2c0.2-8.2-3-13-8.4-13.2c-5.4-0.2-8.9,4.5-9.1,12.7s3,13.5,8.4,13.6
		C395.2,740.4,398.7,735.4,398.9,727.2z"/>
	<path class="st2" d="M422.4,704.1l11.9-1.3l3.9,35l17-1.9l1.1,10l-28.9,3.2L422.4,704.1z"/>
	<path class="st2" d="M462.3,722.1c-3.6-14.5,2.7-24.6,14.9-27.6c12.2-3,22.4,3.1,26,17.6c3.6,14.5-2.6,25-14.8,28
		S465.8,736.5,462.3,722.1z M491.2,714.9c-2-8-6.3-11.8-11.6-10.5c-5.3,1.3-7.4,6.7-5.4,14.7c2,8,6.4,12.2,11.7,10.9
		C491.2,728.7,493.2,722.9,491.2,714.9z"/>
	<path class="st2" d="M515.3,708.4c-5.9-14,0.4-26,11.6-30.7c6.2-2.6,11.7-1.9,15.9-0.2L540,687c-2.8-0.9-5.4-1.4-8.7,0
		c-5.7,2.4-8,8.6-4.8,16.2c3.3,7.8,8.6,10.8,16,7.6c1.2-0.5,2.3-1.3,2.9-2.1l-2.4-5.8l-6.2,2.6l-3.8-9l15.9-6.7l8.3,19.9
		c-1.8,4.1-6.1,8.6-12,11.1C533.6,725.8,521.2,722.7,515.3,708.4z"/>
	<path class="st2" d="M551.1,667.1l10.5-5.8l22,39.6l-10.5,5.8L551.1,667.1z"/>
	<path class="st2" d="M578.6,650.7l11.9-8.3l37.3,29.2l-10.4,7.3l-7.3-6.6l-10.4,7.3l3.7,9.2l-10,7L578.6,650.7z M596.1,670.6
		l6.8-4.8l-2.4-2.1c-3.4-2.9-7.5-6.8-11-9.8l-0.2,0.2c1.8,4.3,4,9.4,5.6,13.6L596.1,670.6z"/>
</g>
<g>
	<path class="st5" d="M102.6,400c0-164.1,133.1-297.2,297.2-297.2C563.9,102.8,697,235.9,697,400"/>
	<path class="st2" d="M170.6,196.7l-1.1-15.4c5.9-0.5,12-2.7,15.5-6c3.8-3.6,4.2-6.4,2.2-8.5c-2.2-2.3-5.3-0.7-10.8,1.5l-8.3,3.2
		c-7,2.8-15.6,2.8-22.1-4.1c-7.7-8.1-6.8-21.7,3.6-31.5c5.4-5.2,13.3-8.8,21.8-8.7l1.3,13.8c-5.4,0.8-9.2,2.3-12.7,5.6
		c-3.1,2.9-3.9,5.8-1.9,7.9c2.2,2.3,5.6,0.5,11.5-1.9l7.9-3.2c8.1-3.3,15.4-2.4,21.6,4.1c7.7,8,7.8,21.5-4,32.8
		C189,192,180.1,196.4,170.6,196.7z"/>
	<path class="st2" d="M199.3,115.2l-14.4,9.6l-8.1-12.1l43.2-28.9l8.1,12.1l-14.4,9.6l28.3,42.4l-14.4,9.6L199.3,115.2z"/>
	<path class="st2" d="M237,74.9l22.8-9.6c13-5.5,26-5.7,32.3,9.4c3.6,8.6,2.1,15.9-2.4,21.6l22.9,17.9l-17.8,7.5l-18.9-15.9
		l-6.1,2.6l8.5,20.2l-16,6.7L237,74.9z M270.2,93.3c6.3-2.6,8.5-6.8,6.3-12c-2.2-5.2-6.2-5.5-12.5-2.8l-5.8,2.4l6.2,14.9L270.2,93.3
		z"/>
	<path class="st2" d="M327.7,44.4l20.6-3.5l30.7,61.1l-18.1,3.1l-5.5-13.2L337.4,95l-0.8,14.2l-17.5,3L327.7,44.4z M338.2,81.3
		l11.9-2l-1.9-4.3c-2.6-5.9-5.6-13.5-8.3-19.6l-0.4,0.1c-0.3,6.8-0.5,14.8-1.1,21.2L338.2,81.3z"/>
	<path class="st2" d="M381.6,70.6l0.9-33.8l17.3,0.5l-0.9,35.8c-0.3,11.7,2.6,16,9.4,16.2c6.8,0.2,10.2-4,10.5-15.6l0.9-35.8
		l16.7,0.4L435.6,72c-0.6,22.4-9.3,32.6-27.6,32.1C389.6,103.6,381,92.9,381.6,70.6z"/>
	<path class="st2" d="M450,73.4c5-21.4,22.5-30.1,38.6-26.4c8.4,2,14.4,7.5,17.9,13l-11.3,8.7c-2.5-3.5-5.2-6.2-9.5-7.2
		c-7.5-1.7-15.5,3.6-18.2,15.2c-2.8,12,1.2,19.9,9.4,21.8c4.9,1.1,9.4-0.5,12.9-2.8l6.4,12.6c-6.9,5-14.9,6.5-23.2,4.6
		C456.6,109.3,445,95.2,450,73.4z"/>
	<path class="st2" d="M507,86.1c8.8-19.7,25-25.7,41.5-18.3c16.5,7.4,22.8,23.6,14,43.1c-8.8,19.7-25.2,26.2-41.8,18.8
		C504.2,122.4,498.2,105.7,507,86.1z M546.3,103.7c4.9-10.8,3.3-19.1-3.9-22.3c-7.2-3.2-14.4,1.1-19.2,11.9
		c-4.9,10.8-3.5,19.6,3.7,22.8C534,119.4,541.4,114.6,546.3,103.7z"/>
	<path class="st2" d="M594.6,93.1l20,14.7c11.4,8.3,18.2,19.4,8.6,32.5c-5.5,7.5-12.6,10-19.7,9l-3.6,28.9l-15.6-11.4l3.9-24.4
		l-5.4-3.9l-13,17.7l-14-10.3L594.6,93.1z M595.9,131c5.5,4.1,10.2,3.8,13.6-0.8s1.5-8.2-4-12.2l-5-3.7l-9.5,13L595.9,131z"/>
	<path class="st2" d="M652,138.3l16.2,17.7c9.6,10.6,14.1,23.2,1.9,34.3c-11.8,10.8-25.4,6.3-34.6-3.9l-4.8-5.2l-15.3,14l-11.7-12.8
		L652,138.3z M644.9,176.7c4.6,5.1,9.3,5.1,13.6,1.2s3.4-8.3-1.1-13.2l-3.9-4.3L640.7,172L644.9,176.7z"/>
</g>
</svg>
