<?xml version="1.0" standalone="no"?>
<!DOCTYPE svg PUBLIC "-//W3C//DTD SVG 20010904//EN"
 "http://www.w3.org/TR/2001/REC-SVG-20010904/DTD/svg10.dtd">
<svg version="1.0" xmlns="http://www.w3.org/2000/svg"
 width="192.000000pt" height="192.000000pt" viewBox="0 0 192.000000 192.000000"
 preserveAspectRatio="xMidYMid meet">
<metadata>
Created by potrace 1.11, written by Peter Selinger 2001-2013
</metadata>
<g transform="translate(0.000000,192.000000) scale(0.100000,-0.100000)"
fill="#000000" stroke="none">
<path d="M760 1891 c-170 -36 -323 -117 -454 -242 -127 -120 -210 -255 -263
-426 -25 -81 -27 -101 -27 -263 0 -162 2 -182 27 -263 89 -290 300 -519 577
-626 216 -84 489 -80 703 9 275 114 491 366 564 657 24 95 24 351 0 446 -89
355 -379 635 -732 708 -116 24 -280 24 -395 0z m363 -156 c40 -58 58 -65 94
-40 21 15 23 14 49 -27 79 -126 95 -148 112 -157 11 -6 22 -8 25 -5 6 6 114
-137 317 -420 112 -155 114 -159 99 -185 -25 -44 -48 -38 -129 34 -41 36 -80
65 -86 65 -23 0 -33 -28 -31 -88 1 -46 -3 -66 -15 -78 -15 -15 -18 -15 -41 9
-29 28 -79 125 -127 245 -38 96 -63 117 -108 91 -59 -32 -75 -115 -50 -258 11
-64 10 -72 -7 -91 -23 -26 -59 -26 -83 1 -11 11 -37 68 -57 127 -60 171 -90
217 -136 210 -21 -3 -62 -48 -95 -104 -15 -25 -25 -14 -35 42 -5 26 -11 49
-13 52 -14 13 -63 -22 -152 -109 -56 -55 -107 -99 -113 -99 -16 0 -14 55 5
121 30 105 2 111 -97 20 -77 -69 -70 -55 80 154 95 134 110 150 133 147 14 -2
29 2 33 8 4 7 19 0 41 -19 19 -17 40 -28 48 -25 14 6 195 284 234 360 21 42
48 74 60 74 4 0 24 -25 45 -55z m219 -582 c8 -10 27 -52 43 -93 58 -153 118
-250 155 -250 32 0 50 39 50 107 0 44 4 63 13 63 6 0 39 -24 72 -53 96 -86
127 -94 155 -41 l14 25 18 -23 c24 -32 22 -81 -7 -182 -47 -163 -131 -301
-251 -417 -115 -109 -233 -177 -391 -226 -80 -24 -102 -27 -253 -27 -151 0
-173 3 -253 27 -158 49 -276 117 -391 226 -80 77 -140 158 -189 255 l-35 70
46 68 c25 37 46 68 48 68 2 0 13 -18 24 -40 11 -22 23 -40 26 -40 3 0 14 20
25 44 19 45 25 49 88 61 l33 7 -37 38 c-33 34 -36 41 -34 89 2 46 7 55 36 79
19 15 55 45 81 68 109 94 131 101 108 36 -19 -54 -28 -110 -21 -132 13 -42 36
-30 146 75 60 58 116 105 123 105 8 0 16 -16 19 -41 10 -79 51 -88 83 -18 20
46 58 80 80 72 23 -9 61 -82 103 -197 21 -58 46 -117 55 -131 22 -33 59 -42
92 -21 40 27 44 54 27 152 -12 72 -13 97 -4 132 20 73 70 104 103 65z m-1044
-225 c-9 -13 -36 -56 -62 -95 -48 -75 -54 -79 -115 -67 l-32 7 32 33 c32 33
33 35 23 84 -6 28 -9 50 -8 50 1 0 22 -8 46 -19 l44 -19 40 24 c48 29 50 30
32 2z"/>
<path d="M637 883 c-22 -22 -34 -27 -67 -24 l-40 3 21 -37 c21 -34 21 -38 6
-76 -17 -44 -21 -42 40 -24 16 4 33 -2 58 -21 l35 -26 0 40 c0 36 4 43 37 63
l37 23 -37 15 c-30 11 -39 21 -47 52 -6 22 -12 39 -13 39 -1 0 -15 -12 -30
-27z"/>
<path d="M956 837 c-4 -18 -15 -27 -38 -33 l-33 -7 23 -15 c15 -10 22 -24 22
-48 l0 -34 25 16 c21 14 30 15 52 5 24 -11 25 -11 19 15 -5 17 -1 35 9 50 15
23 14 24 -4 24 -11 0 -31 12 -44 26 l-24 26 -7 -25z"/>
<path d="M1360 817 c0 -9 -8 -21 -17 -27 -17 -10 -17 -10 0 -20 9 -6 17 -18
17 -27 0 -13 3 -14 12 -5 7 7 19 12 29 12 12 0 16 8 15 30 -1 20 -6 30 -16 30
-9 0 -21 5 -28 12 -9 9 -12 8 -12 -5z"/>
</g>
</svg>
